<svg xmlns="http://www.w3.org/2000/svg" xmlns:xlink="http://www.w3.org/1999/xlink" width="378" zoomAndPan="magnify" viewBox="0 0 283.5 283.500005" height="378" preserveAspectRatio="xMidYMid meet" version="1.0"><defs><clipPath id="0ec839d679"><path d="M 63 46 L 187.894531 46 L 187.894531 142 L 63 142 Z M 63 46 " clip-rule="nonzero"/></clipPath><clipPath id="c72104d8c7"><path d="M 53.882812 31.269531 L 66 31.269531 L 66 257.371094 L 53.882812 257.371094 Z M 53.882812 31.269531 " clip-rule="nonzero"/></clipPath><clipPath id="fd17360a7c"><path d="M 58.632812 29 L 247 29 L 247 166 L 58.632812 166 Z M 58.632812 29 " clip-rule="nonzero"/></clipPath><clipPath id="cd1a4dca75"><path d="M 58.632812 28.296875 L 248.050781 28.296875 L 248.050781 166.054688 L 58.632812 166.054688 Z M 58.632812 28.296875 " clip-rule="nonzero"/></clipPath></defs><g clip-path="url(#0ec839d679)"><path fill="#ffffff" d="M 187.765625 92.9375 C 146.40625 42.550781 105 97.242188 63.640625 46.859375 C 63.640625 77.546875 63.640625 108.28125 63.640625 138.96875 C 105 158.621094 146.40625 73.289062 187.765625 92.9375 Z M 187.765625 92.9375 " fill-opacity="1" fill-rule="nonzero"/></g><g clip-path="url(#c72104d8c7)"><path fill="#000000" d="M 65.332031 37.054688 C 65.332031 33.894531 62.769531 31.332031 59.609375 31.332031 C 56.449219 31.332031 53.882812 33.894531 53.882812 37.054688 C 53.882812 38.660156 54.523438 40.078125 55.578125 41.132812 L 55.578125 253.160156 C 55.578125 255.359375 57.410156 257.191406 59.609375 257.191406 C 61.804688 257.191406 63.640625 255.359375 63.640625 253.160156 L 63.640625 41.132812 C 64.691406 40.078125 65.332031 38.660156 65.332031 37.054688 Z M 65.332031 37.054688 " fill-opacity="1" fill-rule="nonzero"/></g><g clip-path="url(#fd17360a7c)"><path fill="#000000" d="M 71.949219 124.042969 C 72.363281 125.085938 72.261719 125.714844 72.363281 126.964844 C 72.46875 128.113281 73.09375 125.503906 72.78125 127.277344 C 72.574219 128.53125 72.46875 131.347656 72.574219 132.289062 C 72.574219 132.707031 72.363281 134.164062 72.46875 133.851562 C 72.675781 133.226562 72.78125 132.289062 72.988281 131.871094 C 73.40625 131.246094 73.40625 134.375 73.507812 135 C 73.925781 137.714844 74.027344 130.304688 74.027344 129.992188 C 74.238281 128.324219 74.339844 125.816406 74.132812 124.878906 C 74.132812 124.566406 73.925781 126.652344 73.820312 125.816406 C 73.820312 124.878906 74.027344 123.105469 73.925781 122.269531 C 73.71875 121.226562 73.507812 122.480469 73.300781 123.417969 C 72.988281 124.671875 72.675781 121.4375 72.574219 121.226562 C 72.46875 119.871094 72.15625 123.730469 71.949219 124.042969 Z M 60.089844 43.488281 C 63.628906 45.992188 66.644531 48.289062 70.492188 49.539062 C 70.804688 49.644531 72.363281 62.6875 72.675781 62.792969 C 73.09375 62.898438 72.46875 50.167969 72.988281 50.269531 C 75.171875 50.792969 77.359375 51.210938 79.542969 51.417969 C 79.957031 51.417969 80.375 54.550781 80.894531 54.550781 C 81 54.445312 82.871094 60.394531 82.871094 62.167969 C 82.871094 65.507812 81.621094 67.59375 81.621094 71.140625 C 81.621094 73.644531 82.351562 74.6875 82.664062 76.671875 C 82.871094 78.652344 81.933594 85.019531 81.933594 79.695312 C 81.933594 75.941406 80.6875 73.644531 80.6875 69.472656 C 80.6875 66.652344 80.789062 57.679688 81.207031 57.15625 C 81.726562 56.53125 81.414062 55.382812 81.101562 54.445312 C 81.519531 53.820312 82.144531 50.375 82.453125 50.375 C 86.511719 50.585938 94.730469 54.652344 95.664062 54.96875 C 95.664062 55.070312 95.664062 55.175781 95.5625 55.382812 C 95.25 56.949219 94.625 57.886719 94.3125 59.765625 C 94.105469 61.019531 93.480469 64.878906 93.6875 65.191406 C 94 65.820312 93.0625 66.863281 92.960938 66.964844 L 93.375 66.339844 C 93.480469 66.339844 94.625 63.941406 94.832031 63.210938 C 95.039062 61.75 94.730469 60.707031 94.9375 59.140625 C 95.144531 58.097656 95.5625 57.679688 95.769531 56.84375 C 95.871094 56.425781 95.976562 55.488281 95.976562 54.96875 C 96.496094 54.238281 97.328125 50.792969 97.746094 50.6875 C 100.136719 50.269531 102.632812 49.855469 105.128906 49.226562 C 105.652344 49.125 105.339844 56.113281 105.859375 56.011719 C 106.378906 55.90625 107.730469 48.601562 108.25 48.496094 C 115.324219 46.933594 122.917969 44.742188 130.71875 42.339844 C 130.925781 42.238281 131.863281 44.742188 132.800781 47.246094 C 133.734375 49.75 134.671875 52.148438 134.878906 52.148438 C 134.984375 52.148438 134.984375 51.730469 134.878906 51.105469 C 134.984375 51.316406 135.191406 51.523438 135.296875 51.730469 C 135.609375 52.253906 135.503906 57.886719 135.503906 58.722656 C 135.503906 59.664062 135.398438 60.394531 135.710938 61.226562 C 136.230469 62.585938 136.75 58.410156 136.75 57.472656 C 136.75 56.425781 136.648438 56.636719 136.230469 56.011719 C 135.609375 54.96875 137.6875 52.046875 136.230469 51.210938 C 135.398438 50.792969 135.085938 50.375 134.671875 49.855469 C 134.152344 46.828125 132.902344 41.714844 133.320312 41.609375 C 140.183594 39.523438 147.152344 37.4375 154.332031 35.558594 C 154.433594 35.558594 154.953125 36.914062 155.058594 36.914062 C 155.164062 36.914062 155.476562 34.203125 155.683594 34.203125 C 159.324219 33.261719 161.925781 32.742188 165.566406 32.011719 C 165.773438 32.011719 167.019531 33.890625 167.230469 33.785156 C 167.644531 33.679688 167.851562 32.53125 168.375 32.53125 C 170.347656 32.21875 172.324219 31.90625 174.300781 31.59375 C 174.71875 31.488281 176.382812 41.402344 176.796875 41.402344 C 177.320312 41.296875 176.695312 31.28125 177.214844 31.28125 C 183.664062 30.550781 190.527344 28.460938 196.5625 30.863281 C 203.738281 33.890625 211.851562 36.601562 220.695312 36.707031 C 220.070312 40.878906 200.722656 33.679688 200.097656 36.808594 C 205.714844 37.644531 225.789062 40.777344 233.695312 45.160156 C 237.441406 47.558594 241.183594 47.347656 244.929688 46.722656 C 243.058594 52.777344 219.132812 43.070312 216.117188 47.246094 C 215.804688 50.0625 236.191406 47.664062 235.046875 52.984375 C 231.617188 50.792969 223.191406 50.6875 221.734375 52.671875 C 220.695312 53.507812 228.496094 55.488281 234.632812 57.15625 C 231.71875 58.203125 223.191406 58.203125 220.277344 57.15625 C 219.652344 58.617188 234.632812 67.070312 233.488281 67.382812 C 229.328125 65.609375 221.214844 62.6875 215.699219 61.4375 C 215.804688 61.332031 215.804688 61.125 215.492188 60.914062 C 213.828125 59.871094 208.417969 59.871094 206.234375 59.871094 C 204.988281 59.871094 203.738281 59.347656 202.492188 59.347656 C 197.808594 59.347656 204.363281 59.871094 205.507812 60.394531 C 206.132812 60.601562 207.277344 60.914062 208.109375 61.226562 C 195 58.304688 176.175781 58.828125 158.074219 69.679688 C 152.355469 73.019531 169.828125 71.976562 161.820312 71.976562 C 152.042969 71.976562 137.480469 79.90625 129.054688 76.773438 C 121.566406 73.855469 122.1875 78.757812 119.277344 76.984375 C 117.195312 75.628906 114.386719 76.253906 112.515625 74.6875 C 112.097656 74.375 105.859375 73.4375 106.792969 73.644531 C 118.339844 75.835938 118.339844 74.375 133.109375 76.253906 C 149.546875 78.339844 165.042969 59.035156 194.898438 56.425781 C 195.9375 56.324219 183.871094 57.785156 184.910156 57.992188 C 186.367188 58.304688 189.90625 60.078125 191.359375 60.078125 C 194.691406 60.078125 200.722656 61.019531 205.714844 61.855469 C 202.492188 61.855469 198.953125 61.644531 195.625 61.644531 C 190.945312 61.644531 199.578125 62.375 201.136719 62.375 C 205.507812 62.375 207.898438 63.316406 211.851562 63.835938 C 212.890625 63.941406 213.203125 64.046875 212.371094 62.898438 C 214.660156 63.210938 215.390625 63.210938 213.101562 62.480469 L 212.890625 62.375 C 213.101562 62.375 213.308594 62.375 213.621094 62.375 C 219.238281 63.835938 228.808594 66.234375 228.496094 66.550781 C 227.871094 67.175781 221.214844 66.027344 220.695312 66.757812 C 220.382812 67.175781 224.75 70.722656 228.289062 71.664062 C 227.453125 72.707031 221.007812 72.808594 215.179688 71.453125 C 216.222656 71.558594 229.847656 76.878906 228.289062 78.964844 C 222.566406 77.089844 219.132812 77.921875 218.820312 79.28125 C 220.902344 81.679688 224.542969 82.097656 228.496094 80.742188 C 232.65625 79.382812 237.335938 81.472656 239.9375 83.453125 C 237.753906 82.828125 230.574219 81.367188 226.414062 83.035156 C 225.582031 82.933594 228.078125 85.957031 237.128906 86.792969 C 230.472656 88.042969 219.132812 83.664062 211.539062 80.84375 C 211.226562 81.886719 229.429688 88.359375 229.640625 89.921875 C 215.078125 83.765625 209.5625 84.183594 209.460938 84.914062 C 209.25 85.75 215.597656 88.671875 222.980469 89.503906 C 222.773438 90.339844 214.972656 90.757812 210.292969 89.089844 C 208.316406 93.367188 229.742188 99.210938 232.34375 97.019531 C 231.09375 99.417969 227.351562 99.941406 223.398438 99.835938 C 222.773438 99.835938 224.335938 101.402344 227.351562 103.382812 C 227.976562 103.800781 220.070312 100.253906 219.238281 100.148438 C 215.699219 99.835938 212.683594 99.3125 212.789062 100.148438 C 213.101562 102.757812 229.328125 107.246094 235.671875 109.644531 C 228.183594 108.707031 221.109375 106.410156 221.421875 107.871094 C 221.839844 110.0625 229.328125 110.792969 229.847656 112.878906 C 221.628906 111.210938 219.132812 116.425781 212.371094 112.671875 C 213.726562 115.382812 220.171875 124.355469 229.953125 123 C 230.992188 124.355469 224.75 126.132812 216.53125 125.296875 C 223.292969 131.660156 234.214844 134.164062 240.144531 130.617188 C 239.3125 135.835938 230.472656 134.894531 231.09375 135.3125 C 233.59375 136.878906 239.210938 139.90625 246.28125 140.007812 C 232.550781 144.703125 213.726562 141.886719 200.828125 141.054688 C 200.097656 141.054688 202.804688 143.765625 208.003906 145.433594 C 213.203125 147.210938 220.796875 147.941406 220.070312 148.148438 C 212.269531 150.757812 190.738281 142.515625 186.367188 142.304688 C 185.328125 142.199219 196.5625 151.800781 195.730469 151.175781 C 187.511719 145.539062 176.277344 143.765625 171.390625 144.289062 C 170.765625 144.390625 168.582031 132.289062 168.0625 132.390625 C 167.539062 132.496094 168.582031 144.703125 167.957031 144.808594 C 162.445312 145.75 156.097656 145.957031 151.003906 148.355469 C 150.792969 148.460938 150.273438 146.6875 150.066406 146.792969 C 149.859375 146.894531 149.648438 149.503906 149.441406 149.609375 C 146.839844 150.863281 144.242188 150.652344 141.847656 151.800781 C 141.328125 152.113281 140.390625 143.871094 139.769531 144.078125 C 139.457031 144.289062 139.457031 152.84375 139.144531 153.054688 C 136.441406 154.304688 133.839844 155.558594 131.34375 156.703125 C 131.136719 156.808594 130.199219 154.828125 129.992188 154.929688 C 129.78125 155.035156 130.199219 157.226562 129.886719 157.332031 C 124.996094 159.523438 120.523438 161.402344 116.15625 162.757812 C 115.949219 162.863281 114.90625 159.523438 114.386719 158.6875 C 115.324219 155.242188 114.90625 152.738281 112.621094 149.921875 C 111.371094 148.355469 110.851562 144.914062 110.851562 142.410156 C 110.851562 141.054688 111.476562 140.113281 110.851562 141.15625 C 108.875 144.289062 110.539062 149.085938 111.890625 151.175781 C 113.035156 152.949219 114.492188 159 113.453125 161.503906 C 113.660156 160.878906 113.867188 160.355469 114.074219 159.730469 C 114.074219 161.191406 114.285156 163.277344 113.972656 163.277344 C 109.1875 164.636719 104.507812 165.46875 99.617188 165.574219 C 99.304688 165.574219 97.433594 162.757812 97.121094 162.757812 C 96.601562 162.757812 97.539062 165.574219 97.015625 165.574219 C 94.417969 165.46875 91.710938 165.15625 88.800781 164.53125 C 87.238281 164.21875 85.261719 161.714844 83.703125 161.296875 C 82.765625 161.085938 84.117188 163.382812 83.183594 163.175781 C 79.644531 162.132812 77.667969 159.730469 73.40625 158.0625 C 72.574219 157.75 72.988281 150.027344 72.15625 149.714844 C 71.742188 149.503906 70.386719 159 69.867188 158.792969 C 66.4375 157.332031 62.898438 155.765625 58.945312 153.886719 C 64.773438 124.671875 68.203125 82.410156 60.089844 43.488281 Z M 95.351562 129.992188 C 95.351562 136.878906 95.25 138.863281 91.816406 142.304688 C 88.070312 146.0625 92.023438 151.695312 94.105469 155.035156 C 94.832031 156.183594 95.5625 158.792969 95.5625 157.019531 C 95.5625 156.183594 95.25 155.558594 95.039062 155.035156 C 94.417969 153.367188 90.566406 146.480469 92.753906 144.289062 C 94.207031 142.828125 95.25 141.574219 95.25 138.757812 Z M 91.609375 76.671875 C 90.464844 79.382812 89.632812 85.75 89.113281 89.714844 C 88.488281 94.929688 91.089844 100.671875 91.089844 104.738281 C 91.089844 107.558594 98.058594 112.042969 94.625 107.765625 C 92.023438 104.53125 93.375 99 91.398438 95.765625 C 89.839844 93.367188 91.609375 80.949219 91.609375 76.671875 Z M 208.003906 98.898438 C 207.277344 98.269531 201.867188 94.828125 203.53125 96.914062 C 205.300781 99.105469 196.664062 94.929688 195.832031 94.929688 C 193.023438 94.929688 190.007812 95.453125 186.886719 95.453125 C 186.472656 95.453125 190.738281 96.078125 190.839844 96.183594 C 191.257812 96.601562 187.097656 96.707031 186.578125 96.707031 C 183.664062 96.707031 182.832031 97.957031 180.128906 97.957031 C 174.820312 97.957031 180.542969 98.898438 182.101562 97.957031 C 183.039062 97.332031 186.054688 97.75 187.304688 97.75 L 192.089844 97.75 C 193.335938 97.75 188.863281 99.210938 188.863281 99.210938 C 193.335938 100.671875 199.785156 97.851562 204.570312 99.730469 C 205.613281 100.148438 210.394531 100.460938 211.332031 100.460938 C 214.453125 100.460938 209.253906 98.6875 208.003906 98.898438 Z M 163.277344 62.898438 C 165.253906 60.289062 182.414062 56.53125 187.304688 53.402344 C 188.550781 52.671875 195 49.4375 203.84375 49.4375 C 205.402344 49.4375 210.292969 50.0625 208.109375 49.226562 C 206.652344 48.707031 199.785156 47.976562 204.570312 47.976562 C 205.820312 47.976562 201.867188 47.871094 201.554688 47.976562 C 199.996094 48.601562 192.402344 50.269531 191.359375 50.269531 C 191.050781 50.269531 193.234375 48.289062 189.59375 49.539062 C 186.992188 50.480469 183.457031 53.507812 180.335938 54.339844 C 179.191406 54.652344 175.65625 55.070312 179.296875 55.070312 C 180.960938 54.863281 165.148438 62.6875 163.277344 62.898438 Z M 102.425781 134.480469 C 102.738281 135.105469 102.53125 135.835938 102.632812 136.984375 C 102.738281 138.964844 103.363281 135.941406 103.882812 135.625 C 103.984375 135.625 104.402344 137.085938 104.507812 137.296875 C 104.714844 137.714844 104.507812 137.296875 104.714844 136.984375 C 105.546875 135.941406 104.820312 135.417969 105.234375 134.375 C 105.339844 134.164062 105.546875 133.957031 105.652344 133.75 C 105.652344 134.0625 105.960938 133.4375 106.273438 133.226562 C 106.792969 132.707031 107.105469 131.558594 107.417969 130.828125 C 107.523438 130.515625 108.148438 127.382812 108.355469 128.21875 C 108.5625 129.261719 108.355469 133.539062 109.394531 130.929688 C 109.601562 130.515625 109.5 129.261719 109.707031 128.84375 C 110.226562 127.59375 109.707031 123.523438 110.125 121.75 C 110.746094 119.246094 110.332031 120.289062 109.707031 121.332031 C 108.769531 122.582031 108.5625 123.417969 108.460938 120.914062 C 108.355469 119.140625 108.355469 120.496094 108.042969 120.914062 C 107.730469 121.332031 107.316406 122.269531 107.105469 122.792969 C 106.792969 123.523438 106.792969 124.984375 106.585938 125.296875 C 106.484375 125.609375 105.753906 123.941406 105.339844 124.878906 C 104.921875 125.816406 105.339844 127.382812 105.546875 128.425781 L 105.546875 128.53125 C 105.441406 128.949219 105.339844 129.46875 105.234375 129.574219 C 105.128906 129.992188 104.714844 130.515625 104.609375 130.929688 C 104.296875 132.289062 104.921875 132.707031 103.363281 132.289062 C 103.050781 132.289062 102.53125 134.269531 102.425781 134.480469 Z M 201.347656 123.730469 C 200.410156 123.210938 197.394531 121.851562 195.9375 120.707031 C 195.210938 120.078125 188.136719 119.453125 189.175781 118.929688 C 190.839844 118.097656 195 119.035156 191.777344 118.199219 C 189.28125 117.574219 187.304688 117.46875 184.496094 117.46875 C 182.207031 117.46875 175.757812 119.347656 177.007812 119.453125 C 180.75 119.871094 176.277344 120.496094 175.445312 120.914062 C 173.988281 121.75 172.742188 122.582031 171.078125 123.417969 C 166.8125 125.503906 173.367188 123.835938 174.40625 123.417969 C 179.398438 121.539062 185.328125 118.722656 191.257812 121.957031 C 191.359375 122.0625 195.105469 123.3125 195.105469 123.210938 C 195.625 122.582031 193.234375 121.332031 195.105469 122.167969 C 197.289062 123.210938 198.746094 124.253906 201.347656 123.730469 Z M 88.695312 115.800781 C 87.863281 116.007812 88.28125 116.425781 88.175781 117.054688 C 88.175781 117.261719 87.863281 117.785156 87.65625 118.097656 C 86.925781 119.453125 88.175781 118.929688 88.695312 119.558594 C 89.320312 120.289062 89.214844 120.183594 89.734375 119.558594 C 90.566406 118.410156 90.777344 119.558594 91.503906 119.558594 C 91.710938 119.558594 91.816406 119.558594 92.023438 119.558594 C 92.230469 119.558594 92.128906 119.660156 92.230469 119.765625 C 92.335938 119.871094 92.960938 120.183594 93.273438 120.289062 C 93.585938 120.390625 93.6875 120.289062 93.792969 120.078125 C 93.898438 119.246094 93.6875 116.324219 93.273438 116.113281 C 93.273438 116.113281 93.0625 115.90625 92.542969 115.90625 C 91.816406 115.800781 91.609375 115.382812 90.566406 115.382812 C 89.113281 115.277344 90.257812 114.757812 88.695312 115.800781 Z M 88.695312 115.800781 " fill-opacity="1" fill-rule="nonzero"/></g><g clip-path="url(#cd1a4dca75)"><path stroke-linecap="butt" transform="matrix(1.040175, 0, 0, 1.043467, 59.154709, 29.297547)" fill="none" stroke-linejoin="miter" d="M 12.30034 90.798667 C 12.69841 91.79819 12.60077 92.400898 12.69841 93.598828 C 12.799805 94.699425 13.400665 92.198747 13.100235 93.89831 C 12.9012 95.099983 12.799805 97.799068 12.9012 98.701258 C 12.9012 99.101816 12.69841 100.498153 12.799805 100.19867 C 12.99884 99.599706 13.100235 98.701258 13.29927 98.300701 C 13.701096 97.701736 13.701096 100.700303 13.798735 101.299268 C 14.200561 103.901021 14.2982 96.799545 14.2982 96.500063 C 14.500991 94.901576 14.598631 92.49823 14.399596 91.599783 C 14.399596 91.3003 14.200561 93.299345 14.099166 92.49823 C 14.099166 91.599783 14.2982 89.90022 14.200561 89.099105 C 14.001526 88.099583 13.798735 89.301256 13.5997 90.199703 C 13.29927 91.401376 12.99884 88.301733 12.9012 88.099583 C 12.799805 86.800578 12.499375 90.499185 12.30034 90.798667 Z M 0.899016 13.599599 C 4.301388 15.999202 7.200539 18.200397 10.899585 19.398327 C 11.200015 19.499402 12.69841 31.999047 12.99884 32.100123 C 13.400665 32.201198 12.799805 20.001035 13.29927 20.098367 C 15.398526 20.6 17.501537 21.000557 19.600792 21.198965 C 19.998862 21.198965 20.400688 24.201275 20.900153 24.201275 C 21.001548 24.1002 22.800373 29.801596 22.800373 31.501158 C 22.800373 34.701876 21.598653 36.700921 21.598653 40.100046 C 21.598653 42.499648 22.300908 43.499171 22.601338 45.400884 C 22.800373 47.298853 21.899083 53.400806 21.899083 48.298375 C 21.899083 44.700844 20.701118 42.499648 20.701118 38.501558 C 20.701118 35.79873 20.798758 27.199843 21.200583 26.69821 C 21.700048 26.099245 21.399618 24.998647 21.099188 24.1002 C 21.501013 23.501235 22.101873 20.199442 22.398548 20.199442 C 26.300384 20.401593 34.201697 24.298607 35.099232 24.601833 C 35.099232 24.699165 35.099232 24.80024 35.001592 24.998647 C 34.701162 26.499802 34.100302 27.39825 33.799872 29.198887 C 33.600837 30.40056 32.999976 34.099168 33.199011 34.39865 C 33.499442 35.001358 32.598151 36.000881 32.500511 36.098212 L 32.898581 35.499248 C 32.999976 35.499248 34.100302 33.20072 34.299337 32.50068 C 34.498372 31.1006 34.201697 30.101078 34.400732 28.599923 C 34.599767 27.6004 35.001592 27.199843 35.200627 26.398727 C 35.298267 25.998169 35.399662 25.099722 35.399662 24.601833 C 35.899127 23.901793 36.699022 20.6 37.100848 20.498924 C 39.399138 20.098367 41.798824 19.701553 44.19851 19.098844 C 44.70173 19.001513 44.4013 25.698687 44.900765 25.601355 C 45.40023 25.50028 46.699591 18.49988 47.199056 18.398804 C 54.000043 16.901392 61.300495 14.801272 68.799982 12.499002 C 68.999017 12.40167 69.900308 14.801272 70.801598 17.200875 C 71.699133 19.600477 72.600424 21.899005 72.799459 21.899005 C 72.900854 21.899005 72.900854 21.498447 72.799459 20.899482 C 72.900854 21.101633 73.099889 21.30004 73.201284 21.498447 C 73.501714 22.00008 73.400319 27.39825 73.400319 28.199365 C 73.400319 29.101556 73.298924 29.801596 73.599354 30.598967 C 74.098819 31.901716 74.598284 27.899883 74.598284 27.001435 C 74.598284 25.998169 74.500644 26.20032 74.098819 25.601355 C 73.501714 24.601833 75.499574 21.801673 74.098819 21.000557 C 73.298924 20.6 72.998494 20.199442 72.600424 19.701553 C 72.100958 16.800317 70.899238 11.900037 71.301063 11.798962 C 77.89926 9.799917 84.598852 7.800872 91.501234 6.000234 C 91.598874 6.000234 92.098339 7.299239 92.199735 7.299239 C 92.30113 7.299239 92.60156 4.701229 92.800595 4.701229 C 96.300606 3.799039 98.801687 3.301149 102.301698 2.601109 C 102.500733 2.601109 103.698698 4.401747 103.901488 4.300672 C 104.299558 4.199596 104.498593 3.098999 105.001814 3.098999 C 106.898279 2.799516 108.7985 2.500034 110.69872 2.200552 C 111.100545 2.099476 112.700336 11.600555 113.098406 11.600555 C 113.601626 11.499479 113.000766 1.901069 113.500231 1.901069 C 119.700358 1.201029 126.298555 -0.801759 132.100612 1.500512 C 138.999239 4.401747 146.799156 6.999757 155.301329 7.100832 C 154.700469 11.098922 136.100088 4.199596 135.499228 7.198164 C 140.899459 7.999279 160.19834 11.00159 167.799223 15.20183 C 171.400629 17.500357 174.99828 17.298207 178.599686 16.699242 C 176.800861 22.501713 153.799178 13.199042 150.900028 17.200875 C 150.599597 19.89996 170.198908 17.601433 169.098583 22.70012 C 165.801362 20.6 157.701015 20.498924 156.300259 22.400638 C 155.301329 23.201753 162.800816 25.099722 168.700513 26.69821 C 165.899002 27.701475 157.701015 27.701475 154.899504 26.69821 C 154.298643 28.09829 168.700513 36.199288 167.600188 36.49877 C 163.600712 34.799208 155.800794 31.999047 150.498202 30.801118 C 150.599597 30.700043 150.599597 30.501636 150.299167 30.299485 C 148.699377 29.299963 143.49818 29.299963 141.398925 29.299963 C 140.200959 29.299963 138.999239 28.79833 137.801274 28.79833 C 133.298577 28.79833 139.600099 29.299963 140.700424 29.801596 C 141.301285 30.000003 142.40161 30.299485 143.201505 30.598967 C 130.598461 27.798807 112.501301 28.30044 95.098885 38.699966 C 89.601014 41.900683 106.398814 40.901161 98.700292 40.901161 C 89.300584 40.901161 75.300539 48.500526 67.200192 45.498215 C 60.001135 42.701799 60.59824 47.399928 57.800484 45.700366 C 55.798868 44.401361 53.098752 45.000326 51.299927 43.499171 C 50.898102 43.199688 44.900765 42.301241 45.7983 42.499648 C 56.899194 44.599768 56.899194 43.199688 71.098273 45.000326 C 86.900898 46.999371 101.798477 28.498847 130.500821 25.998169 C 131.499752 25.900838 119.899393 27.300918 120.898323 27.499325 C 122.299079 27.798807 125.70145 29.49837 127.09845 29.49837 C 130.301786 29.49837 136.100088 30.40056 140.899459 31.201676 C 137.801274 31.201676 134.398902 30.999525 131.199321 30.999525 C 126.70038 30.999525 134.999763 31.699565 136.498158 31.699565 C 140.700424 31.699565 142.998715 32.601756 146.799156 33.099645 C 147.798086 33.20072 148.098517 33.301796 147.298621 32.201198 C 149.499272 32.50068 150.201527 32.50068 148.000877 31.80064 L 147.798086 31.699565 C 148.000877 31.699565 148.199912 31.699565 148.500342 31.699565 C 153.900574 33.099645 163.101246 35.398172 162.800816 35.701398 C 162.199956 36.300363 155.800794 35.199765 155.301329 35.899805 C 155.000899 36.300363 159.19941 39.699488 162.601781 40.601679 C 161.798131 41.601201 155.601759 41.698533 149.998737 40.399528 C 151.001423 40.500603 164.100177 45.599291 162.601781 47.598335 C 157.100154 45.801441 153.799178 46.598813 153.498748 47.901561 C 155.500364 50.200089 159.000375 50.600646 162.800816 49.301641 C 166.800292 47.998893 171.299234 50.001681 173.800315 51.899651 C 171.701059 51.300686 164.798677 49.900606 160.799201 51.499093 C 159.999305 51.401762 162.398991 54.299253 171.100199 55.100369 C 164.701037 56.298298 153.799178 52.101802 146.498726 49.398973 C 146.198296 50.398496 163.698351 56.601524 163.901142 58.098936 C 149.901097 52.199133 144.598505 52.599691 144.500866 53.299731 C 144.298075 54.100846 150.400562 56.901007 157.498224 57.698378 C 157.299189 58.499494 149.799702 58.900051 145.300761 57.301564 C 143.40054 61.400729 163.998781 67.00105 166.499862 64.900929 C 165.298142 67.199457 161.700491 67.70109 157.90005 67.600014 C 157.299189 67.600014 158.80134 69.10117 161.700491 70.999139 C 162.301351 71.399697 154.700469 68.000572 153.900574 67.899497 C 150.498202 67.600014 147.599051 67.098381 147.700447 67.899497 C 148.000877 70.400174 163.600712 74.70149 169.699443 77.000017 C 162.500386 76.10157 155.699399 73.900375 155.999829 75.300455 C 156.401654 77.400575 163.600712 78.100615 164.100177 80.09966 C 156.198864 78.501173 153.799178 83.498785 147.298621 79.901253 C 148.601737 82.499262 154.798109 91.09815 164.201572 89.799145 C 165.200502 91.09815 159.19941 92.801456 151.298097 92.00034 C 157.798655 98.09855 168.298688 100.498153 173.99935 97.099028 C 173.199454 102.100383 164.701037 101.198193 165.298142 101.59875 C 167.701583 103.099906 173.101815 106.001141 179.899046 106.098473 C 166.698897 110.598196 148.601737 107.899111 136.201483 107.101739 C 135.499228 107.101739 138.101704 109.699748 143.10011 111.298236 C 148.098517 113.001542 155.398969 113.701582 154.700469 113.899989 C 147.200982 116.400667 126.501345 108.501819 122.299079 108.299668 C 121.300148 108.198593 132.100612 117.400189 131.300717 116.801224 C 123.399404 111.399311 112.598941 109.699748 107.900964 110.201381 C 107.300104 110.298713 105.200849 98.701258 104.701384 98.79859 C 104.198163 98.899665 105.200849 110.598196 104.599988 110.699271 C 99.301152 111.601462 93.198665 111.799869 88.301654 114.098396 C 88.098863 114.199471 87.599398 112.499909 87.400363 112.600984 C 87.201328 112.698316 86.998538 115.198993 86.799503 115.300069 C 84.298422 116.501742 81.801096 116.299591 79.499051 117.400189 C 78.999585 117.699671 78.098295 109.800824 77.50119 109.999231 C 77.20076 110.201381 77.20076 118.399711 76.90033 118.601862 C 74.301609 119.799791 71.800528 121.001464 69.400843 122.098319 C 69.201808 122.199394 68.300517 120.301424 68.101482 120.398756 C 67.898692 120.499831 68.300517 122.599952 68.000087 122.701027 C 63.298356 124.801147 58.998449 126.601785 54.799938 127.90079 C 54.600903 128.001865 53.598218 124.801147 53.098752 124.000032 C 54.000043 120.698239 53.598218 118.298636 51.401322 115.599551 C 50.199602 114.098396 49.700137 110.800346 49.700137 108.400744 C 49.700137 107.101739 50.300997 106.199548 49.700137 107.199071 C 47.799916 110.201381 49.399706 114.798436 50.699067 116.801224 C 51.799392 118.500787 53.200148 124.299514 52.201217 126.699117 C 52.400252 126.100152 52.599287 125.598519 52.798322 124.999554 C 52.798322 126.399634 53.001113 128.398679 52.700683 128.398679 C 48.100346 129.701427 43.601405 130.498799 38.899673 130.599874 C 38.599243 130.599874 36.800418 127.90079 36.499987 127.90079 C 36.000522 127.90079 36.901813 130.599874 36.398592 130.599874 C 33.901267 130.498799 31.298791 130.199317 28.501035 129.600352 C 26.998884 129.30087 25.098664 126.901267 23.600269 126.500709 C 22.698978 126.298559 23.998338 128.499754 23.100803 128.301347 C 19.698432 127.301825 17.798212 124.999554 13.701096 123.401067 C 12.9012 123.101585 13.29927 115.700626 12.499375 115.401144 C 12.101305 115.198993 10.798189 124.299514 10.298724 124.101107 C 7.001504 122.701027 3.599132 121.199871 -0.201309 119.399234 C 5.401713 91.401376 8.698934 50.900129 0.899016 13.599599 Z M 34.798802 96.500063 C 34.798802 103.099906 34.701162 105.001619 31.400186 108.299668 C 27.79878 111.900944 31.599221 117.299114 33.600837 120.499831 C 34.299337 121.600429 35.001592 124.101107 35.001592 122.401544 C 35.001592 121.600429 34.701162 121.001464 34.498372 120.499831 C 33.901267 118.901344 30.198465 112.301502 32.301476 110.201381 C 33.698476 108.801301 34.701162 107.599628 34.701162 104.900543 Z M 31.201151 45.400884 C 30.100826 47.998893 29.30093 54.100846 28.801465 57.900529 C 28.200605 62.898141 30.701686 68.40113 30.701686 72.298144 C 30.701686 75.000972 37.401278 79.298544 34.100302 75.199379 C 31.599221 72.099737 32.898581 66.798899 30.998361 63.699256 C 29.499965 61.400729 31.201151 49.500049 31.201151 45.400884 Z M 143.10011 66.701567 C 142.40161 66.098859 137.200413 62.800809 138.800204 64.799854 C 140.50139 66.899974 132.198252 62.898141 131.398356 62.898141 C 128.698241 62.898141 125.79909 63.399774 122.798544 63.399774 C 122.400474 63.399774 126.501345 63.998739 126.598985 64.099814 C 127.00081 64.500372 123.001334 64.601447 122.501869 64.601447 C 119.700358 64.601447 118.900463 65.799377 116.301742 65.799377 C 111.198185 65.799377 116.699812 66.701567 118.198207 65.799377 C 119.099498 65.200412 121.998649 65.600969 123.200369 65.600969 L 127.800706 65.600969 C 128.998671 65.600969 124.698764 67.00105 124.698764 67.00105 C 128.998671 68.40113 135.198798 65.698301 139.799134 67.498939 C 140.80182 67.899497 145.398401 68.198979 146.299691 68.198979 C 149.300237 68.198979 144.301831 66.499417 143.10011 66.701567 Z M 100.101047 32.201198 C 102.001268 29.70052 118.498637 26.099245 123.200369 23.100678 C 124.398334 22.400638 130.598461 19.300995 139.100634 19.300995 C 140.599029 19.300995 145.300761 19.89996 143.201505 19.098844 C 141.80075 18.600955 135.198798 17.900915 139.799134 17.900915 C 141.000855 17.900915 137.200413 17.79984 136.899983 17.900915 C 135.401588 18.49988 128.101136 20.098367 127.09845 20.098367 C 126.801775 20.098367 128.901031 18.200397 125.40102 19.398327 C 122.899939 20.300517 119.501323 23.201753 116.500777 23.999125 C 115.400452 24.298607 112.001836 24.699165 115.501847 24.699165 C 117.101637 24.500758 101.899873 31.999047 100.101047 32.201198 Z M 41.599789 100.801379 C 41.900219 101.400343 41.701184 102.100383 41.798824 103.200981 C 41.900219 105.098951 42.501079 102.201459 43.000545 101.898233 C 43.098184 101.898233 43.50001 103.298313 43.601405 103.500463 C 43.80044 103.901021 43.601405 103.500463 43.80044 103.200981 C 44.600335 102.201459 43.901835 101.699826 44.299905 100.700303 C 44.4013 100.498153 44.600335 100.299746 44.70173 100.101338 C 44.70173 100.400821 44.998405 99.801856 45.298835 99.599706 C 45.7983 99.101816 46.09873 98.001218 46.39916 97.301178 C 46.500556 97.001696 47.101416 93.999385 47.300451 94.800501 C 47.499486 95.800023 47.300451 99.899188 48.299381 97.39851 C 48.498416 97.001696 48.400776 95.800023 48.599811 95.399465 C 49.099276 94.201536 48.599811 90.300778 49.001636 88.601215 C 49.598741 86.201613 49.200671 87.201135 48.599811 88.200658 C 47.698521 89.398587 47.499486 90.199703 47.401846 87.8001 C 47.300451 86.100538 47.300451 87.399542 47.000021 87.8001 C 46.699591 88.200658 46.301521 89.099105 46.09873 89.600738 C 45.7983 90.300778 45.7983 91.700858 45.599265 92.00034 C 45.501625 92.299823 44.79937 90.701336 44.4013 91.599783 C 43.999475 92.49823 44.4013 93.999385 44.600335 94.998908 L 44.600335 95.099983 C 44.49894 95.500541 44.4013 95.99843 44.299905 96.099505 C 44.19851 96.500063 43.80044 97.001696 43.699045 97.39851 C 43.398614 98.701258 43.999475 99.101816 42.501079 98.701258 C 42.200649 98.701258 41.701184 100.599228 41.599789 100.801379 Z M 136.700948 90.499185 C 135.799658 90.001296 132.900507 88.698547 131.499752 87.601693 C 130.801252 86.998985 124.000264 86.40002 124.999195 85.898387 C 126.598985 85.101015 130.598461 85.999462 127.500275 85.198347 C 125.10059 84.599382 123.200369 84.498307 120.500253 84.498307 C 118.299603 84.498307 112.099476 86.298945 113.301196 86.40002 C 116.898847 86.800578 112.598941 87.399542 111.799045 87.8001 C 110.39829 88.601215 109.200325 89.398587 107.600534 90.199703 C 103.499663 92.198747 109.801185 90.60026 110.800115 90.199703 C 115.599487 88.399065 121.300148 85.69998 127.00081 88.799623 C 127.09845 88.900698 130.699856 90.098627 130.699856 90.001296 C 131.199321 89.398587 128.901031 88.200658 130.699856 89.001773 C 132.799112 90.001296 134.199867 91.000818 136.700948 90.499185 Z M 28.39964 82.89982 C 27.599745 83.098227 28.00157 83.498785 27.900175 84.101493 C 27.900175 84.2999 27.599745 84.801533 27.40071 85.101015 C 26.698454 86.40002 27.900175 85.898387 28.39964 86.501095 C 29.0005 87.201135 28.899105 87.10006 29.39857 86.501095 C 30.198465 85.400498 30.401256 86.501095 31.099756 86.501095 C 31.298791 86.501095 31.400186 86.501095 31.599221 86.501095 C 31.798256 86.501095 31.700616 86.598427 31.798256 86.699502 C 31.899651 86.800578 32.500511 87.10006 32.800941 87.201135 C 33.101372 87.298467 33.199011 87.201135 33.300407 86.998985 C 33.401802 86.201613 33.199011 83.401453 32.800941 83.199302 C 32.800941 83.199302 32.598151 83.000895 32.098686 83.000895 C 31.400186 82.89982 31.201151 82.499262 30.198465 82.499262 C 28.801465 82.398187 29.901791 81.900297 28.39964 82.89982 Z M 28.39964 82.89982 " stroke="#000000" stroke-width="0.567" stroke-opacity="1" stroke-miterlimit="22.926001"/></g></svg>